<mxfile host="app.diagrams.net" modified="2024-05-23T11:58:31.434Z" agent="Mozilla/5.0 (Windows NT 10.0; Win64; x64) AppleWebKit/537.36 (KHTML, like Gecko) Chrome/124.0.0.0 Safari/537.36" etag="98EjAjewa5-gl8EmIYbR" version="24.4.6" type="device">
  <diagram name="PÃ¡gina-1" id="JiH2iLI5IrNe-Wn_YRog">
    <mxGraphModel dx="880" dy="468" grid="1" gridSize="10" guides="1" tooltips="1" connect="1" arrows="1" fold="1" page="1" pageScale="1" pageWidth="827" pageHeight="1169" math="0" shadow="0">
      <root>
        <mxCell id="0" />
        <mxCell id="1" parent="0" />
        <mxCell id="DxOu5eZAwnezIb_pXTVH-2" value="Usuario&lt;div&gt;&lt;br&gt;&lt;/div&gt;" style="shape=umlActor;verticalLabelPosition=bottom;verticalAlign=top;html=1;outlineConnect=0;fontStyle=1" parent="1" vertex="1">
          <mxGeometry x="220" y="70" width="30" height="60" as="geometry" />
        </mxCell>
        <mxCell id="DxOu5eZAwnezIb_pXTVH-3" value="Administrador&lt;div&gt;&lt;br&gt;&lt;/div&gt;" style="shape=umlActor;verticalLabelPosition=bottom;verticalAlign=top;html=1;outlineConnect=0;" parent="1" vertex="1">
          <mxGeometry x="580" y="320" width="30" height="60" as="geometry" />
        </mxCell>
        <mxCell id="DxOu5eZAwnezIb_pXTVH-4" value="" style="rounded=0;whiteSpace=wrap;html=1;" parent="1" vertex="1">
          <mxGeometry x="286" y="30" width="244" height="360" as="geometry" />
        </mxCell>
        <mxCell id="DxOu5eZAwnezIb_pXTVH-5" value="4 Lines" style="text;html=1;align=center;verticalAlign=middle;whiteSpace=wrap;rounded=0;" parent="1" vertex="1">
          <mxGeometry x="378" y="30" width="60" height="30" as="geometry" />
        </mxCell>
        <mxCell id="0r0RorYQ6ZdoJDU4tbUm-3" value="" style="edgeStyle=orthogonalEdgeStyle;rounded=0;orthogonalLoop=1;jettySize=auto;html=1;" parent="1" source="DxOu5eZAwnezIb_pXTVH-10" target="DxOu5eZAwnezIb_pXTVH-18" edge="1">
          <mxGeometry relative="1" as="geometry" />
        </mxCell>
        <mxCell id="DxOu5eZAwnezIb_pXTVH-10" value="Fazer login" style="ellipse;whiteSpace=wrap;html=1;" parent="1" vertex="1">
          <mxGeometry x="320" y="80" width="80" height="50" as="geometry" />
        </mxCell>
        <mxCell id="DxOu5eZAwnezIb_pXTVH-11" value="Fazer pagamento da loja" style="ellipse;whiteSpace=wrap;html=1;" parent="1" vertex="1">
          <mxGeometry x="320" y="150" width="80" height="50" as="geometry" />
        </mxCell>
        <mxCell id="DxOu5eZAwnezIb_pXTVH-13" value="" style="endArrow=none;html=1;rounded=0;entryX=0;entryY=0.5;entryDx=0;entryDy=0;strokeColor=none;" parent="1" target="DxOu5eZAwnezIb_pXTVH-10" edge="1">
          <mxGeometry width="50" height="50" relative="1" as="geometry">
            <mxPoint x="240" y="105" as="sourcePoint" />
            <mxPoint x="410" y="210" as="targetPoint" />
          </mxGeometry>
        </mxCell>
        <mxCell id="DxOu5eZAwnezIb_pXTVH-15" value="Consultar pagamento do cliente" style="ellipse;whiteSpace=wrap;html=1;" parent="1" vertex="1">
          <mxGeometry x="440" y="290" width="80" height="50" as="geometry" />
        </mxCell>
        <mxCell id="DxOu5eZAwnezIb_pXTVH-18" value="Ir para a tela principal&amp;nbsp;" style="ellipse;whiteSpace=wrap;html=1;" parent="1" vertex="1">
          <mxGeometry x="430" y="80" width="80" height="50" as="geometry" />
        </mxCell>
        <mxCell id="DxOu5eZAwnezIb_pXTVH-20" value="Verificar senha" style="ellipse;whiteSpace=wrap;html=1;" parent="1" vertex="1">
          <mxGeometry x="330" y="250" width="80" height="50" as="geometry" />
        </mxCell>
        <mxCell id="DxOu5eZAwnezIb_pXTVH-22" value="Exibir erro" style="ellipse;whiteSpace=wrap;html=1;" parent="1" vertex="1">
          <mxGeometry x="450" y="150" width="80" height="50" as="geometry" />
        </mxCell>
        <mxCell id="DxOu5eZAwnezIb_pXTVH-23" value="" style="endArrow=classic;html=1;rounded=0;exitX=0.038;exitY=0.36;exitDx=0;exitDy=0;exitPerimeter=0;entryX=1;entryY=1;entryDx=0;entryDy=0;dashed=1;dashPattern=8 8;" parent="1" source="DxOu5eZAwnezIb_pXTVH-22" target="DxOu5eZAwnezIb_pXTVH-10" edge="1">
          <mxGeometry width="50" height="50" relative="1" as="geometry">
            <mxPoint x="410" y="170" as="sourcePoint" />
            <mxPoint x="460" y="120" as="targetPoint" />
            <Array as="points" />
          </mxGeometry>
        </mxCell>
        <mxCell id="0r0RorYQ6ZdoJDU4tbUm-8" value="&amp;lt;&amp;lt;include&amp;gt;&amp;gt;" style="edgeLabel;html=1;align=center;verticalAlign=middle;resizable=0;points=[];" parent="DxOu5eZAwnezIb_pXTVH-23" vertex="1" connectable="0">
          <mxGeometry x="-0.0166" relative="1" as="geometry">
            <mxPoint as="offset" />
          </mxGeometry>
        </mxCell>
        <mxCell id="DxOu5eZAwnezIb_pXTVH-24" value="" style="endArrow=classic;html=1;rounded=0;entryX=1;entryY=0;entryDx=0;entryDy=0;exitX=0;exitY=1;exitDx=0;exitDy=0;" parent="1" source="DxOu5eZAwnezIb_pXTVH-22" target="DxOu5eZAwnezIb_pXTVH-20" edge="1">
          <mxGeometry width="50" height="50" relative="1" as="geometry">
            <mxPoint x="450" y="200" as="sourcePoint" />
            <mxPoint x="398" y="133" as="targetPoint" />
          </mxGeometry>
        </mxCell>
        <mxCell id="0r0RorYQ6ZdoJDU4tbUm-5" value="" style="endArrow=classic;html=1;rounded=0;entryX=0;entryY=0.5;entryDx=0;entryDy=0;exitX=0.5;exitY=0.5;exitDx=0;exitDy=0;exitPerimeter=0;" parent="1" source="DxOu5eZAwnezIb_pXTVH-2" target="DxOu5eZAwnezIb_pXTVH-10" edge="1">
          <mxGeometry width="50" height="50" relative="1" as="geometry">
            <mxPoint x="240" y="100" as="sourcePoint" />
            <mxPoint x="440" y="220" as="targetPoint" />
          </mxGeometry>
        </mxCell>
        <mxCell id="0r0RorYQ6ZdoJDU4tbUm-6" value="" style="endArrow=classic;html=1;rounded=0;entryX=0;entryY=0.5;entryDx=0;entryDy=0;exitX=0.5;exitY=0.5;exitDx=0;exitDy=0;exitPerimeter=0;" parent="1" source="DxOu5eZAwnezIb_pXTVH-2" target="DxOu5eZAwnezIb_pXTVH-11" edge="1">
          <mxGeometry width="50" height="50" relative="1" as="geometry">
            <mxPoint x="390" y="270" as="sourcePoint" />
            <mxPoint x="440" y="220" as="targetPoint" />
          </mxGeometry>
        </mxCell>
        <mxCell id="0r0RorYQ6ZdoJDU4tbUm-7" value="" style="endArrow=classic;html=1;rounded=0;exitX=1;exitY=1;exitDx=0;exitDy=0;entryX=0.3;entryY=0.08;entryDx=0;entryDy=0;dashed=1;dashPattern=8 8;entryPerimeter=0;" parent="1" source="DxOu5eZAwnezIb_pXTVH-11" target="DxOu5eZAwnezIb_pXTVH-15" edge="1">
          <mxGeometry width="50" height="50" relative="1" as="geometry">
            <mxPoint x="475" y="255" as="sourcePoint" />
            <mxPoint x="410" y="210" as="targetPoint" />
            <Array as="points" />
          </mxGeometry>
        </mxCell>
        <mxCell id="0r0RorYQ6ZdoJDU4tbUm-9" value="&amp;lt;&amp;lt;extend&amp;gt;&amp;gt;" style="edgeLabel;html=1;align=center;verticalAlign=middle;resizable=0;points=[];" parent="0r0RorYQ6ZdoJDU4tbUm-7" vertex="1" connectable="0">
          <mxGeometry x="0.1304" relative="1" as="geometry">
            <mxPoint as="offset" />
          </mxGeometry>
        </mxCell>
        <mxCell id="04nMaZxoIv7Eoea14YpL-1" style="edgeStyle=orthogonalEdgeStyle;rounded=0;orthogonalLoop=1;jettySize=auto;html=1;entryX=0.5;entryY=0.5;entryDx=0;entryDy=0;entryPerimeter=0;" edge="1" parent="1" source="DxOu5eZAwnezIb_pXTVH-15" target="DxOu5eZAwnezIb_pXTVH-3">
          <mxGeometry relative="1" as="geometry" />
        </mxCell>
      </root>
    </mxGraphModel>
  </diagram>
</mxfile>
